HIERARCHY
ROOT Hips
{
  OFFSET 4.45877 97.9592 -23.1345
  CHANNELS 6 Xposition Yposition Zposition Zrotation Xrotation Yrotation
  JOINT Spine
  {
    OFFSET 0 10.1816 0.1315
    CHANNELS 6 Xposition Yposition Zposition Zrotation Xrotation Yrotation
    JOINT Spine1
    {
      OFFSET 0 10.0835 -1.0008
      CHANNELS 6 Xposition Yposition Zposition Zrotation Xrotation Yrotation
      JOINT Spine2
      {
        OFFSET 0 9.1 -1.3734
        CHANNELS 6 Xposition Yposition Zposition Zrotation Xrotation Yrotation
        JOINT Neck
        {
          OFFSET 0 16.6717 -2.5162
          CHANNELS 6 Xposition Yposition Zposition Zrotation Xrotation Yrotation
          JOINT Head
          {
            OFFSET 0 9.6179 1.685
            CHANNELS 6 Xposition Yposition Zposition Zrotation Xrotation Yrotation
            JOINT HeadTop_End
            {
              OFFSET 0 17.8152 2.585
              CHANNELS 6 Xposition Yposition Zposition Zrotation Xrotation Yrotation
              End Site
              {
                OFFSET 0 0 0
              }
            }
            JOINT LeftEye
            {
              OFFSET 3.0676 6.4095 9.2836
              CHANNELS 6 Xposition Yposition Zposition Zrotation Xrotation Yrotation
              End Site
              {
                OFFSET 0 0 0
              }
            }
            JOINT RightEye
            {
              OFFSET -3.0676 6.4095 9.2835
              CHANNELS 6 Xposition Yposition Zposition Zrotation Xrotation Yrotation
              End Site
              {
                OFFSET 0 0 0
              }
            }
          }
        }
        JOINT LeftShoulder
        {
          OFFSET 4.5704 10.946 -2.628
          CHANNELS 6 Xposition Yposition Zposition Zrotation Xrotation Yrotation
          JOINT LeftArm
          {
            OFFSET 10.5924 -0.5246 -2.2321
            CHANNELS 6 Xposition Yposition Zposition Zrotation Xrotation Yrotation
            JOINT LeftForeArm
            {
              OFFSET 27.8415 -0.0001 0
              CHANNELS 6 Xposition Yposition Zposition Zrotation Xrotation Yrotation
              JOINT LeftHand
              {
                OFFSET 28.3288 0 0
                CHANNELS 6 Xposition Yposition Zposition Zrotation Xrotation Yrotation
                JOINT LeftHandThumb1
                {
                  OFFSET 2.4661 -1.575 2.6824
                  CHANNELS 6 Xposition Yposition Zposition Zrotation Xrotation Yrotation
                  JOINT LeftHandThumb2
                  {
                    OFFSET 3.2298 -1.8647 1.8647
                    CHANNELS 6 Xposition Yposition Zposition Zrotation Xrotation Yrotation
                    JOINT LeftHandThumb3
                    {
                      OFFSET 2.6526 -1.5315 1.5315
                      CHANNELS 6 Xposition Yposition Zposition Zrotation Xrotation Yrotation
                      End Site
                      {
                        OFFSET 1.9546 -1.1285 1.1285
                      }
                    }
                  }
                }
                JOINT LeftHandIndex1
                {
                  OFFSET 9.1093 -0.5171 2.2601
                  CHANNELS 6 Xposition Yposition Zposition Zrotation Xrotation Yrotation
                  JOINT LeftHandIndex2
                  {
                    OFFSET 3.6764 0 0
                    CHANNELS 6 Xposition Yposition Zposition Zrotation Xrotation Yrotation
                    JOINT LeftHandIndex3
                    {
                      OFFSET 2.8831 0 0
                      CHANNELS 6 Xposition Yposition Zposition Zrotation Xrotation Yrotation
                      End Site
                      {
                        OFFSET 2.3927 0 0
                      }
                    }
                  }
                }
                JOINT LeftHandMiddle1
                {
                  OFFSET 9.5334 0 0
                  CHANNELS 6 Xposition Yposition Zposition Zrotation Xrotation Yrotation
                  JOINT LeftHandMiddle2
                  {
                    OFFSET 3.6982 0 0
                    CHANNELS 6 Xposition Yposition Zposition Zrotation Xrotation Yrotation
                    JOINT LeftHandMiddle3
                    {
                      OFFSET 2.9509 0 0
                      CHANNELS 6 Xposition Yposition Zposition Zrotation Xrotation Yrotation
                      End Site
                      {
                        OFFSET 2.8339 0 0
                      }
                    }
                  }
                }
                JOINT LeftHandRing1
                {
                  OFFSET 9.1045 -0.0439 -1.8651
                  CHANNELS 6 Xposition Yposition Zposition Zrotation Xrotation Yrotation
                  JOINT LeftHandRing2
                  {
                    OFFSET 3.154 0 0
                    CHANNELS 6 Xposition Yposition Zposition Zrotation Xrotation Yrotation
                    JOINT LeftHandRing3
                    {
                      OFFSET 2.9377 0 0
                      CHANNELS 6 Xposition Yposition Zposition Zrotation Xrotation Yrotation
                      End Site
                      {
                        OFFSET 2.6475 0 0
                      }
                    }
                  }
                }
                JOINT LeftHandPinky1
                {
                  OFFSET 8.0778 -0.4887 -3.8061
                  CHANNELS 6 Xposition Yposition Zposition Zrotation Xrotation Yrotation
                  JOINT LeftHandPinky2
                  {
                    OFFSET 3.6 0 0
                    CHANNELS 6 Xposition Yposition Zposition Zrotation Xrotation Yrotation
                    JOINT LeftHandPinky3
                    {
                      OFFSET 2.1142 0 0
                      CHANNELS 6 Xposition Yposition Zposition Zrotation Xrotation Yrotation
                      End Site
                      {
                        OFFSET 1.9757 0 0
                      }
                    }
                  }
                }
              }
            }
          }
        }
        JOINT RightShoulder
        {
          OFFSET -4.57 10.9462 -2.628
          CHANNELS 6 Xposition Yposition Zposition Zrotation Xrotation Yrotation
          JOINT RightArm
          {
            OFFSET -10.5928 -0.5248 -2.2321
            CHANNELS 6 Xposition Yposition Zposition Zrotation Xrotation Yrotation
            JOINT RightForeArm
            {
              OFFSET -27.8415 0 0
              CHANNELS 6 Xposition Yposition Zposition Zrotation Xrotation Yrotation
              JOINT RightHand
              {
                OFFSET -28.3288 0 0.0001
                CHANNELS 6 Xposition Yposition Zposition Zrotation Xrotation Yrotation
                JOINT RightHandPinky1
                {
                  OFFSET -8.0767 -0.4885 -3.806
                  CHANNELS 6 Xposition Yposition Zposition Zrotation Xrotation Yrotation
                  JOINT RightHandPinky2
                  {
                    OFFSET -3.6 0 0.0001
                    CHANNELS 6 Xposition Yposition Zposition Zrotation Xrotation Yrotation
                    JOINT RightHandPinky3
                    {
                      OFFSET -2.1142 0 0
                      CHANNELS 6 Xposition Yposition Zposition Zrotation Xrotation Yrotation
                      End Site
                      {
                        OFFSET -1.9757 0 0
                      }
                    }
                  }
                }
                JOINT RightHandRing1
                {
                  OFFSET -9.1036 -0.0439 -1.8651
                  CHANNELS 6 Xposition Yposition Zposition Zrotation Xrotation Yrotation
                  JOINT RightHandRing2
                  {
                    OFFSET -3.154 0 0
                    CHANNELS 6 Xposition Yposition Zposition Zrotation Xrotation Yrotation
                    JOINT RightHandRing3
                    {
                      OFFSET -2.9377 0 0
                      CHANNELS 6 Xposition Yposition Zposition Zrotation Xrotation Yrotation
                      End Site
                      {
                        OFFSET -2.6475 0 0
                      }
                    }
                  }
                }
                JOINT RightHandMiddle1
                {
                  OFFSET -9.5325 0 0
                  CHANNELS 6 Xposition Yposition Zposition Zrotation Xrotation Yrotation
                  JOINT RightHandMiddle2
                  {
                    OFFSET -3.6982 0 0
                    CHANNELS 6 Xposition Yposition Zposition Zrotation Xrotation Yrotation
                    JOINT RightHandMiddle3
                    {
                      OFFSET -2.9509 0 0
                      CHANNELS 6 Xposition Yposition Zposition Zrotation Xrotation Yrotation
                      End Site
                      {
                        OFFSET -2.8339 0 0.0001
                      }
                    }
                  }
                }
                JOINT RightHandIndex1
                {
                  OFFSET -9.1083 -0.5168 2.2601
                  CHANNELS 6 Xposition Yposition Zposition Zrotation Xrotation Yrotation
                  JOINT RightHandIndex2
                  {
                    OFFSET -3.6764 0 0
                    CHANNELS 6 Xposition Yposition Zposition Zrotation Xrotation Yrotation
                    JOINT RightHandIndex3
                    {
                      OFFSET -2.8831 0 0
                      CHANNELS 6 Xposition Yposition Zposition Zrotation Xrotation Yrotation
                      End Site
                      {
                        OFFSET -2.3927 0 0
                      }
                    }
                  }
                }
                JOINT RightHandThumb1
                {
                  OFFSET -2.4648 -1.5727 2.6826
                  CHANNELS 6 Xposition Yposition Zposition Zrotation Xrotation Yrotation
                  JOINT RightHandThumb2
                  {
                    OFFSET -3.2298 -1.8647 1.8647
                    CHANNELS 6 Xposition Yposition Zposition Zrotation Xrotation Yrotation
                    JOINT RightHandThumb3
                    {
                      OFFSET -2.6526 -1.5314 1.5314
                      CHANNELS 6 Xposition Yposition Zposition Zrotation Xrotation Yrotation
                      End Site
                      {
                        OFFSET -1.9546 -1.1285 1.1285
                      }
                    }
                  }
                }
              }
            }
          }
        }
      }
    }
  }
  JOINT LeftUpLeg
  {
    OFFSET 8.2078 -6.7517 -1.5996
    CHANNELS 6 Xposition Yposition Zposition Zrotation Xrotation Yrotation
    JOINT LeftLeg
    {
      OFFSET 0 -44.3705 0.2846
      CHANNELS 6 Xposition Yposition Zposition Zrotation Xrotation Yrotation
      JOINT LeftFoot
      {
        OFFSET 0 -44.4279 -2.9822
        CHANNELS 6 Xposition Yposition Zposition Zrotation Xrotation Yrotation
        JOINT LeftToeBase
        {
          OFFSET 0 -8.7287 10.7106
          CHANNELS 6 Xposition Yposition Zposition Zrotation Xrotation Yrotation
          End Site
          {
            OFFSET 0 -0.0007 9.2781
          }
        }
      }
    }
  }
  JOINT RightUpLeg
  {
    OFFSET -8.2078 -6.7517 -1.5996
    CHANNELS 6 Xposition Yposition Zposition Zrotation Xrotation Yrotation
    JOINT RightLeg
    {
      OFFSET 0 -44.3705 0.2862
      CHANNELS 6 Xposition Yposition Zposition Zrotation Xrotation Yrotation
      JOINT RightFoot
      {
        OFFSET 0 -44.4277 -2.9838
        CHANNELS 6 Xposition Yposition Zposition Zrotation Xrotation Yrotation
        JOINT RightToeBase
        {
          OFFSET 0 -8.7287 10.7106
          CHANNELS 6 Xposition Yposition Zposition Zrotation Xrotation Yrotation
          End Site
          {
            OFFSET 0 -0.0007 9.2781
          }
        }
      }
    }
  }
}
MOTION
Frames:	4
Frame Time:	0.0333333
-0.740856 97.3382 1.60672 5.26949 2.49831 -6.9311 8.88178e-016 10.1816 0.1315 -7.55851 0.45333 1.91934 0 10.0835 -1.0008 1.58983 -3.87474 0.584546 -4.44089e-016 9.1 -1.3734 -1.42294 -3.90444 -0.083746 0 16.6717 -2.5162 -0.586373 6.5117 0.421312 -8.88178e-016 9.6179 1.685 7.42909 -7.27653 5.11823 0 17.8152 2.585 -1.51573e-015 7.95139e-016 -0 3.0676 6.4095 9.2836 -1.51573e-015 7.95139e-016 -0 -3.0676 6.4095 9.2835 -1.51573e-015 7.95139e-016 -0 4.5704 10.946 -2.628 -15.1148 7.30304 -5.56649 10.5924 -0.5246 -2.2321 -57.0191 44.9942 -4.93632 27.8415 -0.0001 0 -3.52517 -36.5992 -13.5697 28.3288 0 1.77636e-015 0.852283 -5.70453 -2.42149 2.4661 -1.575 2.6824 -0.644932 12.7949 2.37742 3.2298 -1.8647 1.8647 3.40158 15.6056 30.844 2.6526 -1.5315 1.5315 18.1255 4.17242 13.3338 9.1093 -0.5171 2.2601 -13.4119 -0.645462 3.66837 3.6764 0 -3.55271e-015 -25.5398 -0.571446 2.52097 2.8831 -1.77636e-015 0 -7.53426 -0.0504649 0.766465 9.5334 7.10543e-015 -3.55271e-015 -16.6611 -0.849676 7.70272 3.6982 -1.77636e-015 0 -25.5554 -0.572133 2.52241 2.9509 5.32907e-015 0 -7.53428 -0.0504672 0.766468 9.1045 -0.0439 -1.8651 -20.0513 -1.04823 12.2849 3.154 -3.55271e-015 -4.44089e-016 -25.6901 -0.578081 2.5348 2.9377 -7.10543e-015 0 -7.5349 -0.050475 0.766534 8.0778 -0.4887 -3.8061 -20.9935 -3.28118 18.2027 3.6 0 1.77636e-015 -25.5398 -0.571445 2.52097 2.1142 3.55271e-015 1.77636e-015 -7.53426 -0.0504686 0.766464 -4.57 10.9462 -2.628 18.7587 18.0041 4.56036 -10.5928 -0.5248 -2.2321 44.9539 19.9599 8.26464 -27.8415 0 0 2.84548 0.0119125 13.3348 -28.3288 7.10543e-015 0.0001 7.21675 -3.95668 10.6524 -8.0767 -0.4885 -3.806 20.6464 -3.1978 -17.6291 -3.6 -3.55271e-015 0.0001 25.5916 -0.454715 -2.0035 -2.1142 3.55271e-015 3.55271e-015 7.54872 -0.0402234 -0.609657 -9.1036 -0.0439 -1.8651 19.5627 -0.942711 -11.7457 -3.154 0 -3.55271e-015 25.7422 -0.460688 -2.01595 -2.9377 0 3.55271e-015 7.54938 -0.0402263 -0.609703 -9.5325 -7.10543e-015 2.44249e-015 16.0763 -0.758282 -7.23044 -3.6982 3.55271e-015 0 25.6072 -0.455948 -2.00608 -2.9509 -1.77636e-015 1.77636e-015 7.54876 -0.0402202 -0.611679 -9.1083 -0.5168 2.2601 12.7418 -0.571301 -3.26107 -3.6764 -3.55271e-015 1.33227e-015 25.5916 -0.455396 -2.00494 -2.8831 -8.88178e-016 8.88178e-016 7.54872 -0.0402205 -0.609658 -2.4648 -1.5727 2.6826 1.24767 11.6287 -0.666345 -3.2298 -1.8647 1.8647 -3.63494 16.1182 -32.7229 -2.6526 -1.5314 1.5314 -18.6319 7.66441 -18.698 8.2078 -6.7517 -1.5996 -3.33212 -17.6575 33.7253 0 -44.3705 0.2846 12.0998 35.773 -17.3999 -4.44089e-016 -44.4279 -2.9822 3.47181 -23.4216 -7.53724 -8.88178e-016 -8.7287 10.7106 -1.01546 0.895055 0.0262534 -8.2078 -6.7517 -1.5996 -27.3905 -18.3907 -36.9684 0 -44.3705 0.2862 -11.2784 30.7444 -4.2999 0 -44.4277 -2.9838 19.3276 -3.8396 -15.1761 -3.55271e-015 -8.7287 10.7106 3.9296e-007 3.61546 -4.48609e-006 
-0.215367 97.1418 1.51041 4.80746 2.32012 -6.48367 -8.88178e-016 10.1816 0.1315 -7.73788 0.652392 1.91727 0 10.0835 -1.0008 1.4992 -3.53028 0.551195 -4.44089e-016 9.1 -1.3734 -1.43417 -3.55859 -0.0840448 0 16.6717 -2.5162 -0.272582 6.46524 0.389811 0 9.6179 1.685 7.99213 -6.30197 5.23126 3.55271e-015 17.8152 2.585 -3.47873e-016 -7.95139e-016 1.98785e-016 3.0676 6.4095 9.2836 -3.47873e-016 -7.95139e-016 1.98785e-016 -3.0676 6.4095 9.2835 -3.47873e-016 -7.95139e-016 1.98785e-016 4.5704 10.946 -2.628 -16.0043 7.03111 -7.36802 10.5924 -0.5246 -2.2321 -54.1804 44.6814 -5.32808 27.8415 -0.0001 -3.55271e-015 -3.3775 -34.4495 -12.6366 28.3288 0 -1.77636e-015 0.119221 -5.68956 -1.78809 2.4661 -1.575 2.6824 -1.09445 11.3616 1.22105 3.2298 -1.8647 1.8647 1.3356 14.9331 33.339 2.6526 -1.5315 1.5315 19.6728 5.41729 16.34 9.1093 -0.5171 2.2601 -21.4943 -1.21359 3.79337 3.6764 -1.77636e-015 1.77636e-015 -34.7006 -1.04052 3.32957 2.8831 1.06581e-014 0 -12.4302 -0.13704 1.25831 9.5334 0 0 -24.1417 -1.41262 7.61913 3.6982 -2.66454e-015 1.77636e-015 -34.7144 -1.04132 3.33074 2.9509 0 8.88178e-016 -12.4302 -0.137038 1.25832 9.1045 -0.0439 -1.8651 -26.1523 -1.53927 11.8731 3.154 -3.55271e-015 0 -34.834 -1.0483 3.34078 2.9377 7.10543e-015 8.88178e-016 -12.4308 -0.137046 1.25838 8.0778 -0.4887 -3.8061 -27.3728 -3.58793 17.1495 3.6 -2.66454e-015 0 -34.7006 -1.04052 3.32957 2.1142 -7.10543e-015 0 -12.4302 -0.137039 1.25832 -4.57 10.9462 -2.628 19.0546 17.4805 6.84714 -10.5928 -0.5248 -2.2321 43.5996 20.8688 8.03379 -27.8415 0 0 3.36068 0.47931 12.7926 -28.3288 -7.10543e-015 0.0001 6.99508 -4.0512 10.2238 -8.0767 -0.4885 -3.806 27.0131 -3.4297 -16.4616 -3.6 -1.77636e-015 0.0001 34.774 -0.828295 -2.64638 -2.1142 -7.10543e-015 0 12.4543 -0.10921 -1.00086 -9.1036 -0.0439 -1.8651 25.6613 -1.36892 -11.2221 -3.154 1.77636e-015 0 34.9078 -0.835402 -2.65659 -2.9377 -7.10543e-015 0 12.4549 -0.109216 -1.0009 -9.5325 0 0 23.5614 -1.25028 -7.00699 -3.6982 1.77636e-015 -3.55271e-015 34.7879 -0.829846 -2.64861 -2.9509 0 3.55271e-015 12.4543 -0.109207 -1.00287 -9.1083 -0.5168 2.2601 20.8321 -1.07119 -3.232 -3.6764 3.55271e-015 8.88178e-016 34.774 -0.829201 -2.64768 -2.8831 7.10543e-015 0 12.4543 -0.10921 -1.00085 -2.4648 -1.5727 2.6826 1.69181 10.2291 0.532034 -3.2298 -1.8647 1.8647 -1.5759 15.3542 -35.2097 -2.6526 -1.5314 1.5314 -19.9519 8.92932 -21.7406 8.2078 -6.7517 -1.5996 -3.07777 -17.903 33.6575 -4.44089e-016 -44.3705 0.2846 12.399 36.6282 -17.8075 -2.66454e-015 -44.4279 -2.9822 3.94523 -23.8613 -7.45175 0 -8.7287 10.7106 -1.01349 0.896216 0.0262027 -8.2078 -6.7517 -1.5996 -27.141 -18.158 -36.3981 -3.55271e-015 -44.3705 0.2862 -11.3465 30.8416 -5.02115 -3.55271e-015 -44.4277 -2.9838 19.7638 -3.54472 -15.2536 0 -8.7287 10.7106 -2.31807e-005 3.60722 -2.27623e-006 
0.265252 97.0597 1.28093 3.85842 2.15019 -5.86621 0 10.1816 0.1315 -7.68296 0.833389 1.8791 0 10.0835 -1.0008 1.42436 -3.18678 0.522903 0 9.1 -1.3734 -1.43959 -3.21394 -0.0829409 8.88178e-016 16.6717 -2.5162 0.0437129 6.35578 0.334591 0 9.6179 1.685 8.61823 -5.12515 5.19891 -1.77636e-015 17.8152 2.585 -1.2424e-016 -7.95139e-016 1.98785e-016 3.0676 6.4095 9.2836 -1.2424e-016 -7.95139e-016 1.98785e-016 -3.0676 6.4095 9.2835 -1.2424e-016 -7.95139e-016 1.98785e-016 4.5704 10.946 -2.628 -16.4912 6.65382 -9.49053 10.5924 -0.5246 -2.2321 -49.5676 45.0108 -7.71909 27.8415 -0.0001 3.55271e-015 -3.27431 -32.1409 -11.9427 28.3288 7.10543e-015 1.77636e-015 -4.33668 -5.70007 -1.65267 2.4661 -1.575 2.6824 -1.63816 9.87373 -0.00172679 3.2298 -1.8647 1.8647 -0.758492 14.0676 35.9373 2.6526 -1.5315 1.5315 21.2543 6.88711 19.4192 9.1093 -0.5171 2.2601 -30.0106 -1.91162 3.83103 3.6764 -8.88178e-016 0 -44.3533 -1.66769 4.08985 2.8831 -7.10543e-015 1.77636e-015 -17.5912 -0.273409 1.76689 9.5334 0 0 -32.0247 -2.08683 7.44649 3.6982 -2.66454e-015 0 -44.3653 -1.66854 4.09073 2.9509 7.10543e-015 -8.88178e-016 -17.5913 -0.273413 1.76689 9.1045 -0.0439 -1.8651 -32.5823 -2.10783 11.3808 3.154 2.66454e-015 1.77636e-015 -44.4691 -1.67596 4.09832 2.9377 -7.10543e-015 -8.88178e-016 -17.5917 -0.273428 1.76695 8.0778 -0.4887 -3.8061 -34.0891 -3.95697 15.9749 3.6 0 2.66454e-015 -44.3533 -1.66768 4.08985 2.1142 7.10543e-015 1.77636e-015 -17.5912 -0.27341 1.76689 -4.57 10.9462 -2.628 19.3591 16.9361 9.47444 -10.5928 -0.5248 -2.2321 40.9394 21.8963 9.29387 -27.8415 7.10543e-015 0 3.96745 0.781883 11.9579 -28.3288 -7.10543e-015 0.0001 7.69852 -4.0251 10.189 -8.0767 -0.4885 -3.806 33.7161 -3.70691 -15.1757 -3.6 6.38378e-015 0.0001 44.4517 -1.32785 -3.25047 -2.1142 -7.10543e-015 -7.10543e-015 17.6259 -0.217889 -1.40531 -9.1036 -0.0439 -1.8651 32.0898 -1.85678 -10.6198 -3.154 4.44089e-016 3.55271e-015 44.5678 -1.33557 -3.25834 -2.9377 0 3.55271e-015 17.6263 -0.217901 -1.40536 -9.5325 7.10543e-015 2.66454e-015 31.4507 -1.83073 -6.69802 -3.6982 -1.77636e-015 -1.77636e-015 44.4637 -1.32965 -3.25232 -2.9509 0 -3.55271e-015 17.6259 -0.217892 -1.40734 -9.1083 -0.5168 2.2601 29.3587 -1.67463 -3.11919 -3.6764 -8.88178e-016 2.66454e-015 44.4517 -1.32897 -3.25162 -2.8831 0 0 17.6259 -0.217887 -1.40533 -2.4648 -1.5727 2.6826 2.23033 8.77575 1.80007 -3.2298 -1.8647 1.8647 0.503091 14.3945 -37.7934 -2.6526 -1.5314 1.5314 -21.2966 10.4082 -24.8677 8.2078 -6.7517 -1.5996 -2.2796 -18.1525 33.4478 1.33227e-015 -44.3705 0.2846 12.5837 37.423 -18.1965 4.44089e-016 -44.4279 -2.9822 4.42545 -24.1318 -7.36341 0 -8.7287 10.7106 -1.01002 0.898048 0.026112 -8.2078 -6.7517 -1.5996 -26.1696 -17.6453 -35.4484 3.55271e-015 -44.3705 0.2862 -11.0674 30.464 -6.53766 0 -44.4277 -2.9838 20.0252 -2.95402 -15.2719 0 -8.7287 10.7106 -2.5317e-005 3.59607 5.80066e-006 
0.703065 97.0963 0.860762 2.32451 2.22714 -4.91646 8.88178e-016 10.1816 0.1315 -7.35686 0.992428 1.78969 -1.77636e-015 10.0835 -1.0008 1.36045 -2.81239 0.49586 -8.88178e-016 9.1 -1.3734 -1.42901 -2.83854 -0.0796411 1.77636e-015 16.6717 -2.5162 0.325908 6.07585 0.260699 1.77636e-015 9.6179 1.685 9.32546 -3.8011 5.00325 -3.55271e-015 17.8152 2.585 1.90826e-016 -1.86361e-017 -3.97569e-016 3.0676 6.4095 9.2836 1.90826e-016 -1.86361e-017 -3.97569e-016 -3.0676 6.4095 9.2835 1.90826e-016 -1.86361e-017 -3.97569e-016 4.5704 10.946 -2.628 -16.7022 6.21607 -11.976 10.5924 -0.5246 -2.2321 -42.2574 45.6429 -12.891 27.8415 -0.0001 0 -3.4545 -30.0526 -11.9074 28.3288 -7.10543e-015 -1.77636e-015 -8.72924 -5.71344 -1.83879 2.4661 -1.575 2.6824 -2.27701 8.35789 -1.27758 3.2298 -1.8647 1.8647 -2.82954 13.0062 38.59 2.6526 -1.5315 1.5315 22.8317 8.57696 22.5143 9.1093 -0.5171 2.2601 -38.8456 -2.72726 3.75326 3.6764 0 0 -54.3664 -2.4437 4.75633 2.8831 0 0 -22.9464 -0.462722 2.27953 9.5334 -7.10543e-015 3.55271e-015 -40.2033 -2.86075 7.16444 3.6982 -1.77636e-015 0 -54.3766 -2.44455 4.75695 2.9509 0 0 -22.9464 -0.462724 2.27955 9.1045 -0.0439 -1.8651 -39.2541 -2.74571 10.8009 3.154 0 0 -54.4639 -2.45181 4.76215 2.9377 0 1.77636e-015 -22.9468 -0.462741 2.27958 8.0778 -0.4887 -3.8061 -41.0499 -4.38127 14.6801 3.6 0 -1.77636e-015 -54.3664 -2.4437 4.75634 2.1142 0 0 -22.9464 -0.462721 2.27953 -4.57 10.9462 -2.628 19.858 16.4002 12.4075 -10.5928 -0.5248 -2.2321 36.4634 22.6068 12.4463 -27.8415 -1.42109e-014 0 4.5806 0.680626 11.3185 -28.3288 1.42109e-014 0.0001 7.9811 -4.02328 10.1384 -8.0767 -0.4885 -3.806 40.6624 -4.02319 -13.7768 -3.6 -7.10543e-015 0.0001 54.4927 -1.94594 -3.77948 -2.1142 -1.42109e-014 7.10543e-015 22.9924 -0.368763 -1.81298 -9.1036 -0.0439 -1.8651 38.7611 -2.3985 -9.93571 -3.154 1.77636e-015 -3.55271e-015 54.5906 -1.95372 -3.78503 -2.9377 0 0 22.9927 -0.368763 -1.813 -9.5325 0 2.66454e-015 39.6374 -2.48854 -6.28922 -3.6982 7.10543e-015 -1.77636e-015 54.5029 -1.94792 -3.78088 -2.9509 0 0 22.9925 -0.368759 -1.815 -9.1083 -0.5168 2.2601 38.2061 -2.36972 -2.90167 -3.6764 1.77636e-015 1.77636e-015 54.4926 -1.94724 -3.78039 -2.8831 0 1.77636e-015 22.9924 -0.36876 -1.81297 -2.4648 -1.5727 2.6826 2.86448 7.29489 3.12387 -3.2298 -1.8647 1.8647 2.55075 13.2385 -40.425 -2.6526 -1.5314 1.5314 -22.6314 12.0953 -28.0244 8.2078 -6.7517 -1.5996 -0.817185 -18.7439 33.0496 -4.44089e-016 -44.3705 0.2846 12.6839 38.1992 -18.6987 -1.33227e-015 -44.4279 -2.9822 4.95333 -24.1794 -7.26983 0 -8.7287 10.7106 -1.00565 0.900542 0.0259911 -8.2078 -6.7517 -1.5996 -24.3956 -16.9998 -34.2226 -7.10543e-015 -44.3705 0.2862 -10.3508 29.5154 -8.98623 0 -44.4277 -2.9838 20.0293 -2.0196 -15.3155 -3.55271e-015 -8.7287 10.7106 -2.60181e-005 3.57556 8.71555e-006 
